<?xml version="1.0" encoding="UTF-8" standalone="no"?>
<!DOCTYPE svg PUBLIC "-//W3C//DTD SVG 1.1//EN"
        "http://www.w3.org/Graphics/SVG/1.1/DTD/svg11.dtd">
<!-- Generated by graphviz version 2.47.0 (20210316.0004)
 -->
<!-- Title: communication Pages: 1 -->
<svg width="988pt" height="98pt"
     viewBox="0.00 0.00 987.87 98.00" xmlns="http://www.w3.org/2000/svg">
    <g id="graph0" class="graph" transform="scale(1 1) rotate(0) translate(4 94)">
        <title>communication</title>
        <polygon fill="white" stroke="transparent" points="-4,4 -4,-94 983.87,-94 983.87,4 -4,4"/>
        <!-- Net -->
        <g id="node1" class="node">
            <title>Net</title>
            <ellipse fill="none" stroke="black" cx="27" cy="-45" rx="27" ry="18"/>
            <text text-anchor="middle" x="27" y="-41.3" font-family="Times New Roman,serif" font-size="14.00">Net</text>
        </g>
        <!-- Decoder -->
        <g id="node2" class="node">
            <title>Decoder</title>
            <ellipse fill="none" stroke="black" cx="224.25" cy="-72" rx="42.49" ry="18"/>
            <text text-anchor="middle" x="224.25" y="-68.3" font-family="Times New Roman,serif" font-size="14.00">
                Decoder
            </text>
        </g>
        <!-- Net&#45;&gt;Decoder -->
        <g id="edge2" class="edge">
            <title>Net&#45;&gt;Decoder</title>
            <path fill="none" stroke="black" d="M53.53,-48.53C83.98,-52.74 135.6,-59.88 173.93,-65.18"/>
            <polygon fill="black" stroke="black" points="173.48,-68.65 183.86,-66.55 174.44,-61.72 173.48,-68.65"/>
            <text text-anchor="middle" x="118" y="-66.8" font-family="Times New Roman,serif" font-size="14.00">Decoder
                Thread
            </text>
        </g>
        <!-- NetworkConnection -->
        <g id="node4" class="node">
            <title>NetworkConnection</title>
            <ellipse fill="none" stroke="black" cx="478.34" cy="-45" rx="83.69" ry="18"/>
            <text text-anchor="middle" x="478.34" y="-41.3" font-family="Times New Roman,serif" font-size="14.00">
                NetworkConnection
            </text>
        </g>
        <!-- Decoder&#45;&gt;NetworkConnection -->
        <g id="edge3" class="edge">
            <title>Decoder&#45;&gt;NetworkConnection</title>
            <path fill="none" stroke="black" d="M265.47,-67.69C299.64,-64.03 349.83,-58.66 392.78,-54.06"/>
            <polygon fill="black" stroke="black" points="393.39,-57.51 402.96,-52.97 392.64,-50.55 393.39,-57.51"/>
            <text text-anchor="middle" x="330.49" y="-68.8" font-family="Times New Roman,serif" font-size="14.00">
                Decoder Thread
            </text>
        </g>
        <!-- Encoder -->
        <g id="node3" class="node">
            <title>Encoder</title>
            <ellipse fill="none" stroke="black" cx="224.25" cy="-18" rx="41.69" ry="18"/>
            <text text-anchor="middle" x="224.25" y="-14.3" font-family="Times New Roman,serif" font-size="14.00">
                Encoder
            </text>
        </g>
        <!-- Encoder&#45;&gt;Net -->
        <g id="edge1" class="edge">
            <title>Encoder&#45;&gt;Net</title>
            <path fill="none" stroke="black"
                  d="M182.46,-19.05C151.82,-20.43 108.96,-23.63 72,-31 68.32,-31.73 64.52,-32.67 60.77,-33.7"/>
            <polygon fill="black" stroke="black" points="59.62,-30.39 51.04,-36.61 61.62,-37.1 59.62,-30.39"/>
            <text text-anchor="middle" x="118" y="-34.8" font-family="Times New Roman,serif" font-size="14.00">Encoder
                Thread
            </text>
        </g>
        <!-- NetworkConnection&#45;&gt;Encoder -->
        <g id="edge4" class="edge">
            <title>NetworkConnection&#45;&gt;Encoder</title>
            <path fill="none" stroke="black" d="M402.89,-37.03C361.75,-32.62 311.75,-27.27 275.29,-23.36"/>
            <polygon fill="black" stroke="black" points="275.23,-19.83 264.91,-22.25 274.48,-26.79 275.23,-19.83"/>
            <text text-anchor="middle" x="330.49" y="-36.8" font-family="Times New Roman,serif" font-size="14.00">
                UI/User Thread
            </text>
        </g>
        <!-- NetworkListener -->
        <g id="node5" class="node">
            <title>NetworkListener</title>
            <ellipse fill="none" stroke="black" cx="761.02" cy="-63" rx="70.69" ry="18"/>
            <text text-anchor="middle" x="761.02" y="-59.3" font-family="Times New Roman,serif" font-size="14.00">
                NetworkListener
            </text>
        </g>
        <!-- NetworkConnection&#45;&gt;NetworkListener -->
        <g id="edge5" class="edge">
            <title>NetworkConnection&#45;&gt;NetworkListener</title>
            <path fill="none" stroke="black"
                  d="M542.91,-56.53C555.23,-58.36 568.08,-59.98 580.18,-61 612.74,-63.75 648.74,-64.59 679.93,-64.61"/>
            <polygon fill="black" stroke="black" points="680.31,-68.11 690.3,-64.59 680.3,-61.11 680.31,-68.11"/>
            <text text-anchor="middle" x="626.18" y="-67.8" font-family="Times New Roman,serif" font-size="14.00">
                Decoder Thread
            </text>
        </g>
        <!-- NetworkListener&#45;&gt;NetworkConnection -->
        <g id="edge6" class="edge">
            <title>NetworkListener&#45;&gt;NetworkConnection</title>
            <path fill="none" stroke="black"
                  d="M712.97,-49.61C699.88,-46.47 685.57,-43.58 672.18,-42 638.27,-38 600.79,-37.67 567.95,-38.71"/>
            <polygon fill="black" stroke="black" points="567.79,-35.21 557.92,-39.07 568.04,-42.21 567.79,-35.21"/>
            <text text-anchor="middle" x="626.18" y="-45.8" font-family="Times New Roman,serif" font-size="14.00">Any
                Thread
            </text>
        </g>
        <!-- UI -->
        <g id="node6" class="node">
            <title>UI</title>
            <ellipse fill="none" stroke="black" cx="952.87" cy="-28" rx="27" ry="18"/>
            <text text-anchor="middle" x="952.87" y="-24.3" font-family="Times New Roman,serif" font-size="14.00">UI
            </text>
        </g>
        <!-- NetworkListener&#45;&gt;UI -->
        <g id="edge7" class="edge">
            <title>NetworkListener&#45;&gt;UI</title>
            <path fill="none" stroke="black" d="M818.72,-52.55C850.5,-46.69 889.14,-39.56 916.59,-34.5"/>
            <polygon fill="black" stroke="black" points="917.32,-37.93 926.52,-32.67 916.05,-31.04 917.32,-37.93"/>
            <text text-anchor="middle" x="878.87" y="-49.8" font-family="Times New Roman,serif" font-size="14.00">UI
                Thread
            </text>
        </g>
        <!-- UI&#45;&gt;NetworkConnection -->
        <g id="edge8" class="edge">
            <title>UI&#45;&gt;NetworkConnection</title>
            <path fill="none" stroke="black"
                  d="M925.67,-26.03C901.37,-24.31 864.2,-21.94 831.87,-21 768.92,-19.17 753.05,-17.43 690.18,-21 646.53,-23.48 598.04,-28.81 558.58,-33.83"/>
            <polygon fill="black" stroke="black" points="557.96,-30.38 548.49,-35.13 558.85,-37.32 557.96,-30.38"/>
            <text text-anchor="middle" x="761.02" y="-24.8" font-family="Times New Roman,serif" font-size="14.00">UI
                Thread
            </text>
        </g>
    </g>
</svg>
